<?xml version="1.0" encoding="utf-8"?>
<!-- Generator: Adobe Illustrator 18.0.0, SVG Export Plug-In . SVG Version: 6.00 Build 0)  -->
<!DOCTYPE svg PUBLIC "-//W3C//DTD SVG 1.1 Tiny//EN" "http://www.w3.org/Graphics/SVG/1.1/DTD/svg11-tiny.dtd">
<svg version="1.1" baseProfile="tiny" id="Layer_1" xmlns="http://www.w3.org/2000/svg" xmlns:xlink="http://www.w3.org/1999/xlink"
	 x="0px" y="0px" viewBox="112.7 -37.8 50 50" xml:space="preserve">
<g>
	<g>
		<path stroke="#000000" stroke-width="1.5" stroke-linejoin="round" d="M124.2,1c3.4-1,10.1,0.4,13.5-2c3.4,2.4,10.1,1,13.5,2
			c0,0,1.7,0.5,3,2c-0.7,1-1.6,1-3,0.5c-3.4-1-10.1,0.5-13.5-1c-3.4,1.5-10.1,0-13.5,1c-1.4,0.5-2.3,0.5-3-0.5
			C122.5,1.1,124.2,1,124.2,1z"/>
		<path stroke="#000000" stroke-width="1.5" stroke-linejoin="round" d="M130.2-3c2.5,2.5,12.5,2.5,15,0c0.5-1.5,0-2,0-2
			c0-2.5-2.5-4-2.5-4c5.5-1.5,6-11.5-5-15.5c-11,4-10.5,14-5,15.5c0,0-2.5,1.5-2.5,4C130.2-5,129.7-4.5,130.2-3z"/>
		<path stroke="#000000" stroke-width="1.5" stroke-linejoin="round" d="M140.2-27c0,1.4-1.1,2.5-2.5,2.5c-1.4,0-2.5-1.1-2.5-2.5
			c0-1.4,1.1-2.5,2.5-2.5C139-29.5,140.2-28.4,140.2-27z"/>
	</g>
	<path fill="none" stroke="#FFFFFF" stroke-width="1.5" stroke-linecap="round" d="M132.7-9h10 M130.2-5h15 M137.7-19.5v5 M135.2-17
		h5"/>
</g>
</svg>
