<?xml version="1.0" encoding="utf-8"?>
<!-- Generator: Adobe Illustrator 18.0.0, SVG Export Plug-In . SVG Version: 6.00 Build 0)  -->
<!DOCTYPE svg PUBLIC "-//W3C//DTD SVG 1.1 Tiny//EN" "http://www.w3.org/Graphics/SVG/1.1/DTD/svg11-tiny.dtd">
<svg version="1.1" baseProfile="tiny" id="Layer_1" xmlns="http://www.w3.org/2000/svg" xmlns:xlink="http://www.w3.org/1999/xlink"
	 x="0px" y="0px" viewBox="112.7 -96.5 50 50" xml:space="preserve">
<g>
	<g>
		<path fill="#FFFFFF" stroke="#000000" stroke-width="1.5" stroke-linejoin="round" d="M124.2-57.7c3.4-1,10.1,0.4,13.5-2
			c3.4,2.4,10.1,1,13.5,2c0,0,1.7,0.5,3,2c-0.7,1-1.6,1-3,0.5c-3.4-1-10.1,0.5-13.5-1c-3.4,1.5-10.1,0-13.5,1
			c-1.4,0.5-2.3,0.5-3-0.5C122.5-57.6,124.2-57.7,124.2-57.7z"/>
		<path fill="#FFFFFF" stroke="#000000" stroke-width="1.5" stroke-linejoin="round" d="M130.2-61.7c2.5,2.5,12.5,2.5,15,0
			c0.5-1.5,0-2,0-2c0-2.5-2.5-4-2.5-4c5.5-1.5,6-11.5-5-15.5c-11,4-10.5,14-5,15.5c0,0-2.5,1.5-2.5,4
			C130.2-63.7,129.7-63.2,130.2-61.7z"/>
		<path fill="#FFFFFF" stroke="#000000" stroke-width="1.5" stroke-linejoin="round" d="M140.2-85.7c0,1.4-1.1,2.5-2.5,2.5
			c-1.4,0-2.5-1.1-2.5-2.5s1.1-2.5,2.5-2.5C139-88.2,140.2-87,140.2-85.7z"/>
	</g>
	<path fill="none" stroke="#000000" stroke-width="1.5" stroke-linecap="round" d="M132.7-67.7h10 M130.2-63.7h15 M137.7-78.2v5
		 M135.2-75.7h5"/>
</g>
</svg>
