<?xml version="1.0" encoding="utf-8"?>
<!-- Generator: Adobe Illustrator 18.0.0, SVG Export Plug-In . SVG Version: 6.00 Build 0)  -->
<!DOCTYPE svg PUBLIC "-//W3C//DTD SVG 1.1 Tiny//EN" "http://www.w3.org/Graphics/SVG/1.1/DTD/svg11-tiny.dtd">
<svg version="1.1" baseProfile="tiny" id="Layer_1" xmlns="http://www.w3.org/2000/svg" xmlns:xlink="http://www.w3.org/1999/xlink"
	 x="0px" y="0px" viewBox="0 -37.8 50 50" xml:space="preserve">
<g>
	<path fill="none" stroke="#000000" stroke-width="1.5" stroke-linecap="round" d="M25-24v-5.6"/>
	<path stroke="#000000" stroke-width="1.5" d="M25-10.6c0,0,4.5-7.5,3-10.5c0,0-1-2.5-3-2.5s-3,2.5-3,2.5C20.5-18.1,25-10.6,25-10.6
		"/>
	<path stroke="#000000" stroke-width="1.5" stroke-linecap="round" stroke-linejoin="round" d="M14,1.4c5.5,3.5,15.5,3.5,21,0v-7
		c0,0,9-4.5,6-10.5c-4-6.5-13.5-3.5-16,4v3.5v-3.5c-3.5-7.5-13-10.5-16-4c-3,6,5,10,5,10V1.4z"/>
	<path fill="none" stroke="#000000" stroke-width="1.5" stroke-linecap="round" d="M22.5-27.6h5"/>
	<path fill="none" stroke="#FFFFFF" stroke-width="1.5" stroke-linecap="round" stroke-linejoin="round" d="M34.5-6.1
		c0,0,8.5-4,6-9.6c-3.9-5.9-13-1.9-15.5,4.6L25-9l0-2.1c-2.5-6.5-12.6-10.5-15.5-4.6c-2.5,5.6,4.9,9,4.9,9"/>
	<path fill="none" stroke="#FFFFFF" stroke-width="1.5" stroke-linecap="round" stroke-linejoin="round" d="M14-5.6
		c5.5-3,15.5-3,21,0 M14-2.1c5.5-3,15.5-3,21,0 M14,1.4c5.5-3,15.5-3,21,0"/>
</g>
</svg>
