<?xml version="1.0" encoding="utf-8"?>
<!-- Generator: Adobe Illustrator 18.0.0, SVG Export Plug-In . SVG Version: 6.00 Build 0)  -->
<!DOCTYPE svg PUBLIC "-//W3C//DTD SVG 1.1 Tiny//EN" "http://www.w3.org/Graphics/SVG/1.1/DTD/svg11-tiny.dtd">
<svg version="1.1" baseProfile="tiny" id="Layer_1" xmlns="http://www.w3.org/2000/svg" xmlns:xlink="http://www.w3.org/1999/xlink"
	 x="0px" y="0px" viewBox="169 -37.8 50 50" xml:space="preserve">
<g>
	<path stroke="#000000" stroke-width="1.5" stroke-linecap="round" stroke-linejoin="round" d="M194-26.1c10.5,1,16.5,8,16,29h-23
		c0-9,10-6.5,8-21"/>
	<path stroke="#000000" stroke-width="1.5" stroke-linecap="round" stroke-linejoin="round" d="M196-18.1c0.4,2.9-5.6,7.4-8,9
		c-3,2-2.8,4.3-5,4c-1-0.9,1.4-3,0-3c-1,0,0.2,1.2-1,2c-1,0-4,1-4-4c0-2,6-12,6-12s1.9-1.9,2-3.5c-0.7-1-0.5-2-0.5-3
		c1-1,3,2.5,3,2.5h2c0,0,0.8-2,2.5-3c1,0,1,3,1,3"/>
	<path fill="#FFFFFF" stroke="#FFFFFF" stroke-width="1.5" stroke-linecap="round" stroke-linejoin="round" d="M186.9-20.3
		c-0.4,0.7-0.9,1.2-1.2,1s-0.1-0.8,0.3-1.5c0.4-0.7,0.9-1.2,1.2-1S187.3-21.1,186.9-20.3z"/>
	<path fill="#FFFFFF" d="M196.5-25.7l-0.4,1.5l0.5,0.1c3.1,1,5.6,2.5,7.9,6.8s3.3,10.3,2.8,20.3l-0.1,0.5h2.3l0.1-0.5
		c0.5-10.1-0.9-16.9-3.3-21.3s-5.8-6.6-9.2-7.2L196.5-25.7z"/>
</g>
</svg>
