<?xml version="1.0" encoding="utf-8"?>
<!-- Generator: Adobe Illustrator 18.0.0, SVG Export Plug-In . SVG Version: 6.00 Build 0)  -->
<!DOCTYPE svg PUBLIC "-//W3C//DTD SVG 1.1 Tiny//EN" "http://www.w3.org/Graphics/SVG/1.1/DTD/svg11-tiny.dtd">
<svg version="1.1" baseProfile="tiny" id="Layer_1" xmlns="http://www.w3.org/2000/svg" xmlns:xlink="http://www.w3.org/1999/xlink"
	 x="0px" y="0px" viewBox="169 -96.5 50 50" xml:space="preserve">
<g>
	<path fill="#FFFFFF" stroke="#000000" stroke-width="1.5" stroke-linecap="round" stroke-linejoin="round" d="M194-84.5
		c10.5,1,16.5,8,16,29h-23c0-9,10-6.5,8-21"/>
	<path fill="#FFFFFF" stroke="#000000" stroke-width="1.5" stroke-linecap="round" stroke-linejoin="round" d="M196-76.5
		c0.4,2.9-5.6,7.4-8,9c-3,2-2.8,4.3-5,4c-1-0.9,1.4-3,0-3c-1,0,0.2,1.2-1,2c-1,0-4,1-4-4c0-2,6-12,6-12s1.9-1.9,2-3.5
		c-0.7-1-0.5-2-0.5-3c1-1,3,2.5,3,2.5h2c0,0,0.8-2,2.5-3c1,0,1,3,1,3"/>
	<path stroke="#000000" stroke-width="1.5" stroke-linecap="round" stroke-linejoin="round" d="M181.5-69c0,0.3-0.2,0.5-0.5,0.5
		s-0.5-0.2-0.5-0.5c0-0.3,0.2-0.5,0.5-0.5S181.5-69.3,181.5-69z"/>
	<path stroke="#000000" stroke-width="1.5" stroke-linecap="round" stroke-linejoin="round" d="M186.9-78.8c-0.4,0.7-0.9,1.2-1.2,1
		c-0.2-0.1-0.1-0.8,0.3-1.5c0.4-0.7,0.9-1.2,1.2-1S187.3-79.5,186.9-78.8z"/>
</g>
</svg>
