<?xml version="1.0" encoding="utf-8"?>
<!-- Generator: Adobe Illustrator 18.0.0, SVG Export Plug-In . SVG Version: 6.00 Build 0)  -->
<!DOCTYPE svg PUBLIC "-//W3C//DTD SVG 1.1 Tiny//EN" "http://www.w3.org/Graphics/SVG/1.1/DTD/svg11-tiny.dtd">
<svg version="1.1" baseProfile="tiny" id="Layer_1" xmlns="http://www.w3.org/2000/svg" xmlns:xlink="http://www.w3.org/1999/xlink"
	 x="0px" y="0px" viewBox="286.7 -37.8 50 50" xml:space="preserve">
<g>
	<path stroke="#000000" stroke-width="1.5" stroke-linecap="round" d="M311.7-28.1c-2.2,0-4,1.8-4,4c0,0.9,0.3,1.7,0.8,2.4
		c-2,1.1-3.3,3.2-3.3,5.6c0,2,0.9,3.8,2.4,5c-3,1.1-7.4,5.5-7.4,13.5h23c0-7.9-4.4-12.4-7.4-13.5c1.5-1.2,2.4-3,2.4-5
		c0-2.4-1.3-4.5-3.3-5.6c0.5-0.7,0.8-1.5,0.8-2.4C315.7-26.3,313.9-28.1,311.7-28.1z"/>
</g>
</svg>
