<?xml version="1.0" encoding="utf-8"?>
<!-- Generator: Adobe Illustrator 18.0.0, SVG Export Plug-In . SVG Version: 6.00 Build 0)  -->
<!DOCTYPE svg PUBLIC "-//W3C//DTD SVG 1.1 Tiny//EN" "http://www.w3.org/Graphics/SVG/1.1/DTD/svg11-tiny.dtd">
<svg version="1.1" baseProfile="tiny" id="Layer_1" xmlns="http://www.w3.org/2000/svg" xmlns:xlink="http://www.w3.org/1999/xlink"
	 x="0px" y="0px" viewBox="56 -37.8 50 50" xml:space="preserve">
<g>
	<g>
		<circle cx="64.5" cy="-23.7" r="2.8"/>
		<circle cx="72.5" cy="-26.7" r="2.8"/>
		<circle cx="81" cy="-27.7" r="2.8"/>
		<circle cx="89.5" cy="-26.7" r="2.8"/>
		<circle cx="97.5" cy="-23.7" r="2.8"/>
	</g>
	<path stroke="#000000" stroke-width="1.5" stroke-linejoin="round" d="M67.5-9.7c8.5-1.5,21-1.5,27,0L97-22.2l-7.5,11.5l-0.3-14.1
		L84-11.2l-3-14.5l-3,14.5l-5.2-13.6l-0.3,14.1L65-22.2L67.5-9.7z"/>
	<path stroke="#000000" stroke-width="1.5" stroke-linejoin="round" d="M67.5-9.7c0,2,1.5,2,2.5,4c1,1.5,1,1,0.5,3.5
		C69-1.2,69,0.3,69,0.3c-1.5,1.5,0.5,2.5,0.5,2.5c6.5,1,16.5,1,23,0c0,0,1.5-1,0-2.5c0,0,0.5-1.5-1-2.5C91-4.7,91-4.2,92-5.7
		c1-2,2.5-2,2.5-4C86-11.2,76-11.2,67.5-9.7z"/>
	<path fill="none" stroke="#000000" stroke-width="1.5" stroke-linejoin="round" d="M69.5,2.8c7.4,2.6,15.6,2.6,23,0"/>
	<path fill="none" stroke="#FFFFFF" stroke-width="1.5" stroke-linecap="round" stroke-linejoin="round" d="M69.5-6.7
		c7.4-2.6,15.6-2.6,23,0"/>
	<path fill="none" stroke="#FFFFFF" stroke-width="1.5" stroke-linecap="round" stroke-linejoin="round" d="M71-4.2h20"/>
	<path fill="none" stroke="#FFFFFF" stroke-width="1.5" stroke-linecap="round" stroke-linejoin="round" d="M70-1.2
		c7.1,2.4,14.9,2.4,22,0"/>
	<path fill="none" stroke="#FFFFFF" stroke-width="1.5" stroke-linecap="round" stroke-linejoin="round" d="M69,1.8
		c7.7,2.8,16.3,2.8,24,0"/>
</g>
</svg>
