<?xml version="1.0" encoding="utf-8"?>
<!-- Generator: Adobe Illustrator 18.0.0, SVG Export Plug-In . SVG Version: 6.00 Build 0)  -->
<!DOCTYPE svg PUBLIC "-//W3C//DTD SVG 1.1 Tiny//EN" "http://www.w3.org/Graphics/SVG/1.1/DTD/svg11-tiny.dtd">
<svg version="1.1" baseProfile="tiny" id="Layer_1" xmlns="http://www.w3.org/2000/svg" xmlns:xlink="http://www.w3.org/1999/xlink"
	 x="0px" y="0px" viewBox="56 -96.5 50 50" xml:space="preserve">
<g>
	<path fill="#FFFFFF" stroke="#000000" stroke-width="1.5" stroke-linecap="round" stroke-linejoin="round" d="M66.5-81.9
		c0,1.1-0.9,2-2,2s-2-0.9-2-2s0.9-2,2-2S66.5-83,66.5-81.9z"/>
	<path fill="#FFFFFF" stroke="#000000" stroke-width="1.5" stroke-linecap="round" stroke-linejoin="round" d="M83-86.4
		c0,1.1-0.9,2-2,2s-2-0.9-2-2s0.9-2,2-2S83-87.5,83-86.4z"/>
	<path fill="#FFFFFF" stroke="#000000" stroke-width="1.5" stroke-linecap="round" stroke-linejoin="round" d="M99.5-81.9
		c0,1.1-0.9,2-2,2s-2-0.9-2-2s0.9-2,2-2S99.5-83,99.5-81.9z"/>
	<path fill="#FFFFFF" stroke="#000000" stroke-width="1.5" stroke-linecap="round" stroke-linejoin="round" d="M74.5-85.4
		c0,1.1-0.9,2-2,2s-2-0.9-2-2s0.9-2,2-2S74.5-86.5,74.5-85.4z"/>
	<path fill="#FFFFFF" stroke="#000000" stroke-width="1.5" stroke-linecap="round" stroke-linejoin="round" d="M91.5-84.9
		c0,1.1-0.9,2-2,2s-2-0.9-2-2s0.9-2,2-2S91.5-86,91.5-84.9z"/>
	<path fill="#FFFFFF" stroke="#000000" stroke-width="1.5" stroke-linejoin="round" d="M67.5-67.9c8.5-1.5,21-1.5,27,0l2-12l-7,11
		v-14L84-69.4l-3-15l-3,15l-5.5-14v14.5l-7-11L67.5-67.9z"/>
	<path fill="#FFFFFF" stroke="#000000" stroke-width="1.5" stroke-linejoin="round" d="M67.5-67.9c0,2,1.5,2,2.5,4
		c1,1.5,1,1,0.5,3.5c-1.5,1-1.5,2.5-1.5,2.5c-1.5,1.5,0.5,2.5,0.5,2.5c6.5,1,16.5,1,23,0c0,0,1.5-1,0-2.5c0,0,0.5-1.5-1-2.5
		c-0.5-2.5-0.5-2,0.5-3.5c1-2,2.5-2,2.5-4C86-69.4,76-69.4,67.5-67.9z"/>
	<path fill="none" stroke="#000000" stroke-width="1.5" stroke-linecap="round" stroke-linejoin="round" d="M70-63.9
		c3.5-1,18.5-1,22,0"/>
	<path fill="none" stroke="#000000" stroke-width="1.5" stroke-linecap="round" stroke-linejoin="round" d="M70.5-60.4
		c6-1,15-1,21,0"/>
</g>
</svg>
