<?xml version="1.0" encoding="utf-8"?>
<!-- Generator: Adobe Illustrator 18.0.0, SVG Export Plug-In . SVG Version: 6.00 Build 0)  -->
<!DOCTYPE svg PUBLIC "-//W3C//DTD SVG 1.1 Tiny//EN" "http://www.w3.org/Graphics/SVG/1.1/DTD/svg11-tiny.dtd">
<svg version="1.1" baseProfile="tiny" id="Layer_1" xmlns="http://www.w3.org/2000/svg" xmlns:xlink="http://www.w3.org/1999/xlink"
	 x="0px" y="0px" viewBox="227.3 -37.8 50 50" xml:space="preserve">
<g>
	<path stroke="#000000" stroke-width="1.5" stroke-linejoin="round" d="M238.8,2.2h27v-3h-27V2.2z"/>
	<path stroke="#000000" stroke-width="1.5" stroke-linejoin="round" d="M242.3-4.8l1.5-2.5h17l1.5,2.5H242.3z"/>
	<path stroke="#000000" stroke-width="1.5" stroke-linejoin="round" d="M241.8-0.8v-4h21v4H241.8z"/>
	<path stroke="#000000" stroke-width="1.5" d="M243.8-7.3v-13h17v13H243.8z"/>
	<path stroke="#000000" stroke-width="1.5" stroke-linejoin="round" d="M243.8-20.3l-3-2.5h23l-3,2.5H243.8z"/>
	<path stroke="#000000" stroke-width="1.5" stroke-linejoin="round" d="M240.8-22.8v-5h4v2h5v-2h5v2h5v-2h4v5H240.8z"/>
	<path fill="none" stroke="#FFFFFF" stroke-linecap="round" d="M241.8-1.3h21l0,0"/>
	<path fill="none" stroke="#FFFFFF" stroke-linecap="round" d="M242.8-5.3h19"/>
	<path fill="none" stroke="#FFFFFF" stroke-linecap="round" d="M243.8-7.3h17"/>
	<path fill="none" stroke="#FFFFFF" stroke-linecap="round" d="M243.8-20.3h17"/>
	<path fill="none" stroke="#FFFFFF" stroke-linecap="round" d="M240.8-22.8h23"/>
</g>
</svg>
